# AST/ASF file generated using VICON BodyLanguage
# -----------------------------------------------
:version 1.10
:name VICON
:units
  mass 1.0
  length 0.45
  angle deg
:documentation
   .ast/.asf automatically generated from VICON data using
   VICON BodyBuilder and BodyLanguage model FoxedUp or BRILLIANT.MOD
:root
   order TX TY TZ RX RY RZ
   axis XYZ
   position 0 0 0  
   orientation 0 0 0 
:bonedata
  begin
     id 1 
     name lhipjoint
     direction 0.561001 -0.76473 0.316963 
     length 2.4722 
     axis 0 0 0  XYZ
  end
  begin
     id 2 
     name lfemur
     direction 0.34202 -0.939693 0  
     length 7.59403  
     axis 0 0 20  XYZ
    dof rx ry rz
    limits (-160.0 20.0)
           (-70.0 70.0)
           (-60.0 70.0)
  end
  begin
     id 3 
     name ltibia
     direction 0.34202 -0.939693 0   
     length 7.89655   
     axis 0 0 20   XYZ
    dof rx
    limits (-10.0 170.0)
  end
  begin
     id 4 
     name lfoot
     direction 0.061296 -0.168409 0.98381   
     length 2.73287   
     axis -90 7.62852e-016 20   XYZ
    dof rx rz
    limits (-45.0 90.0)
           (-70.0 20.0)
  end
  begin
     id 5 
     name ltoes
     direction 1.53547e-011 -4.21984e-011 1   
     length 1.37057   
     axis -90 7.62852e-016 20   XYZ
    dof rx
    limits (-90.0 20.0)
  end
  begin
     id 6 
     name rhipjoint
     direction -0.559611 -0.765599 0.317323   
     length 2.46939  
     axis 0 0 0  XYZ 
  end
  begin
     id 7 
     name rfemur
     direction -0.34202 -0.939693 0   
     length 7.53712   
     axis 0 0 -20   XYZ
    dof rx ry rz
    limits (-160.0 20.0)
           (-70.0 70.0)
           (-70.0 60.0)
  end
  begin
     id 8 
     name rtibia
     direction -0.34202 -0.939693 0   
     length 8.12549   
     axis 0 0 -20   XYZ
    dof rx
    limits (-10.0 170.0)
 end
 begin
     id 9 
     name rfoot
     direction -0.066984 -0.184037 0.980634   
     length 2.67541  
     axis -90 -7.62852e-016 -20   XYZ
    dof rx rz
    limits (-45.0 90.0)
           (-20.0 70.0)
  end
  begin
     id 10 
     name rtoes
     direction -1.53549e-011 -4.21786e-011 1   
     length 1.34085   
     axis -90 -7.62852e-016 -20   XYZ
    dof rx
    limits (-90.0 20.0)
  end
  begin
     id 11 
     name lowerback
     direction -0.0522728 0.992594 -0.109658   
     length 2.05633   
     axis 0 0 0   XYZ
    dof rx ry rz
    limits (-20.0 45.0)
           (-30.0 30.0)
           (-30.0 30.0)
  end
  begin
     id 12 
     name upperback
     direction 0.00589338 0.999977 0.00335704   
     length 2.05845   
     axis 0 0 0   XYZ
    dof rx ry rz
    limits (-20.0 45.0)
           (-30.0 30.0)
           (-30.0 30.0)
  end
  begin
     id 13 
     name thorax
     direction 0.0292928 0.998059 0.0549487   
     length 2.09281   
     axis 0 0 0   XYZ
    dof rx ry rz
    limits (-20.0 45.0)
           (-30.0 30.0)
           (-30.0 30.0)
  end
  begin
     id 14 
     name lowerneck
     direction 0.0356368 0.980775 0.191858   
     length 1.84767   
     axis 0 0 0   XYZ
    dof rx ry rz
    limits (-20.0 45.0)
           (-30.0 30.0)
           (-30.0 30.0)
  end
  begin
     id 15 
     name upperneck
     direction -0.0227605 0.98931 -0.14404   
     length 1.89582   
     axis 0 0 0   XYZ
    dof rx ry rz
    limits (-20.0 45.0)
           (-30.0 30.0)
           (-30.0 30.0)
  end
  begin
     id 16
     name head
     direction -0.00932985 0.997511 -0.0698904  
     length 1.90213  
     axis 0 0 0   XYZ
    dof rx ry rz
    limits (-20.0 45.0)
           (-30.0 30.0)
           (-30.0 30.0)
  end
  begin
     id 17 
     name lclavicle
     direction 0.873442 0.479511 0.0846686  
     length 3.41193  
     axis 0 0 0   XYZ
    dof ry rz
    limits (-20.0 10.0)
           (0.0 20.0)
  end
  begin
     id 18 
     name lhumerus
     direction 1 -4.4897e-011 -5.62117e-018   
     length 5.59864   
     axis 180 -30 -90   XYZ
    dof rx ry rz
    limits (-60.0 90.0)
           (-90.0 90.0)
           (-90.0 90.0)
  end
  begin
     id 19
     name lradius
     direction 1 -4.48966e-011 -6.26295e-027   
     length 3.59542   
     axis 180 -30 -90   XYZ
    dof rx
    limits (-10.0 170.0)
  end
  begin
     id 20
     name lwrist
     direction 1 -4.48947e-011 -1.74096e-026   
     length 1.79771   
     axis 1.04567e-014 90 90   XYZ
    dof ry
    limits (-180.0 0.0)
 end
  begin
     id 21 
     name lhand
     direction 1 -4.49085e-011 -3.48469e-026   
     length 0.572014   
     axis 2.22196e-014 90 90   XYZ
    dof rx rz
    limits (-90.0 90.0)
           (-45.0 45.0)
  end
  begin
     id 22 
     name lfingers
     direction 1 -4.48884e-011 -6.96135e-026   
     length 0.461173   
     axis 4.44383e-014 90 90   XYZ
    dof rx
    limits (0.0 90.0)
  end
  begin
     id 23
     name lthumb
     direction 0.707107 -6.34976e-011 0.707107   
     length 0.662154   
     axis -90 45 -5.4397e-014   XYZ
    dof rx rz
    limits (-45.0 45.0)
           (-45.0 45.0)
  end
  begin
     id 24 
     name rclavicle
     direction -0.890242 0.443271 0.104786   
     length 3.46753  
     axis 0 0 0   XYZ 
    dof ry rz
    limits (-10.0 20.0)
           (-20.0 0.0)
  end
  begin
     id 25 
     name rhumerus
     direction -1 -4.48963e-011 -5.41723e-018  
     length 5.8094   
     axis 180 30 90   XYZ
    dof rx ry rz
    limits (-90.0 60.0)
           (-90.0 90.0)
           (-90.0 90.0)
  end
  begin
     id 26 
     name rradius
     direction -1 -4.48958e-011 -6.51059e-027   
     length 3.66953   
     axis 180 30 90   XYZ
    dof rx
    limits (-10.0 170.0)
  end
  begin
     id 27 
     name rwrist
     direction -1 -4.48975e-011 -1.74124e-026   
     length 1.83476   
     axis 1.04567e-014 -90 -90   XYZ
    dof ry
    limits (-180.0 0.0)
  end
  begin
     id 28
     name rhand
     direction -1 -4.49013e-011 -3.48326e-026   
     length 0.57843   
     axis 2.22196e-014 -90 -90   XYZ
    dof rx rz
    limits (-90.0 90.0)
           (-45.0 45.0)
  end
  begin
     id 29
     name rfingers
     direction -1 -4.49023e-011 -6.9669e-026   
     length 0.466345   
     axis 4.44383e-014 -90 -90   XYZ
    dof rx
    limits (0.0 90.0)
  end
  begin
     id 30
     name rthumb
     direction -0.707107 -6.34926e-011 0.707107   
     length 0.669581   
     axis -90 -45 5.4397e-014   XYZ
    dof rx rz
    limits (-45.0 45.0)
           (-45.0 45.0)
  end
:hierarchy
  begin
    root lhipjoint rhipjoint lowerback
    lhipjoint lfemur
    lfemur ltibia
    ltibia lfoot
    lfoot ltoes
    rhipjoint rfemur
    rfemur rtibia
    rtibia rfoot
    rfoot rtoes
    lowerback upperback
    upperback thorax
    thorax lowerneck lclavicle rclavicle
    lowerneck upperneck
    upperneck head
    lclavicle lhumerus
    lhumerus lradius
    lradius lwrist
    lwrist lhand lthumb
    lhand lfingers
    rclavicle rhumerus
    rhumerus rradius
    rradius rwrist
    rwrist rhand rthumb
    rhand rfingers
  end

#!OML:ASF H:\SkateBoarding\Project 1\Capture day 1\Session 1\Skater.ASF
:FULLY-SPECIFIED
:DEGREES
17
root 5.61825 19.5566 -17.9138 1.5128 54.6692 -0.170381
lowerback 10.3241 -2.17893 -6.6601
upperback 0.363359 -3.74024 -1.73235
thorax -5.1029 -1.6876 2.45658
lowerneck -17.1556 -8.41894 -2.25146
upperneck 36.6151 -14.1789 6.66861
head 16.896 -5.04854 0.617581
rclavicle 2.32578e-014 1.27222e-014
rhumerus -35.7453 4.8333 -91.2317
rradius 36.9683
rwrist -3.76087
rhand -20.096 -1.93588
rfingers 7.12502
rthumb 6.24716 -31.8238
lclavicle 2.32578e-014 1.27222e-014
lhumerus -33.4696 -16.0232 92.1436
lradius 48.5825
lwrist 35.0932
lhand -27.4886 21.9527
lfingers 7.12502
lthumb -0.892027 51.9306
rfemur -25.8786 -4.96867 20.978
rtibia 50.9038
rfoot -31.9124 -2.05059
rtoes -13.6746
lfemur -7.33396 5.64662 -17.6029
ltibia 42.6354
lfoot -49.4108 13.6781
ltoes -19.8589
18
root 5.62753 19.553 -17.6639 1.60194 54.0305 -0.138637
lowerback 10.261 -2.19229 -6.62673
upperback 0.299351 -3.75361 -1.72991
thorax -5.13598 -1.69316 2.44098
lowerneck -17.2633 -8.28059 -2.1272
upperneck 36.6494 -13.9404 6.45877
head 16.8848 -4.962 0.54951
rclavicle -9.53172e-014 -1.11319e-014
rhumerus -35.6955 3.85994 -90.9286
rradius 36.7172
rwrist -4.52191
rhand -20.842 -2.32141
rfingers 7.12502
rthumb 5.52692 -32.2293
lclavicle -9.53172e-014 -1.11319e-014
lhumerus -33.5927 -15.6357 91.8853
lradius 48.238
lwrist 34.6718
lhand -26.8707 21.0869
lfingers 7.12502
lthumb -0.29523 51.0665
rfemur -25.7785 -4.94177 21.0858
rtibia 50.7507
rfoot -31.6061 -1.78977
rtoes -14.1745
lfemur -6.92134 5.64911 -17.5583
ltibia 42.3092
lfoot -50.0394 12.6221
ltoes -17.8011
19
root 5.64748 19.5502 -17.4152 2.04589 53.1415 -0.00543834
lowerback 9.80352 -2.14091 -6.55394
upperback 0.16969 -3.64929 -1.75114
thorax -5.03094 -1.64666 2.34532
lowerneck -17.3633 -8.13965 -2.06168
upperneck 36.6611 -13.692 6.2932
head 16.8713 -4.87442 0.512458
rclavicle 5.61567e-014 2.94201e-014
rhumerus -35.6954 2.93513 -90.6101
rradius 36.4782
rwrist -5.07866
rhand -21.8063 -2.5431
rfingers 7.12502
rthumb 4.59581 -32.4732
lclavicle 5.61567e-014 2.94201e-014
lhumerus -33.783 -15.3548 91.6752
lradius 48.0207
lwrist 34.4263
lhand -26.5695 20.7593
lfingers 7.12502
lthumb -0.00425205 50.739
rfemur -25.9738 -4.65831 21.0898
rtibia 50.6041
rfoot -31.3383 -1.1574
rtoes -14.1094
lfemur -6.68783 5.81718 -17.634
ltibia 41.9114
lfoot -50.744 11.3325
ltoes -15.4507
20
root 5.65121 19.5539 -17.169 2.24664 52.6949 0.319463
lowerback 10.0384 -2.19032 -6.65439
upperback 0.106454 -3.75277 -1.80869
thorax -5.21885 -1.6873 2.3679
lowerneck -17.4749 -7.99606 -1.97264
upperneck 36.6647 -13.4725 6.18845
head 16.8649 -4.78649 0.491497
rclavicle -4.52235e-014 2.78299e-014
rhumerus -35.7142 2.1333 -90.3853
rradius 36.3112
rwrist -5.76069
rhand -22.3782 -2.88416
rfingers 7.12502
rthumb 4.0436 -32.8255
lclavicle -4.52235e-014 2.78299e-014
lhumerus -33.9517 -15.0496 91.4201
lradius 47.7748
lwrist 34.1004
lhand -26.4067 20.5342
lfingers 7.12502
lthumb 0.152964 50.5138
rfemur -25.6979 -4.52098 20.9523
rtibia 50.4414
rfoot -31.2621 -0.821487
rtoes -14.0637
lfemur -6.22665 5.7556 -17.8426
ltibia 41.5104
lfoot -51.0265 11.5188
ltoes -15.2512
21
root 5.66954 19.5587 -16.9172 2.59501 51.7183 0.339922
lowerback 9.53411 -2.08386 -6.64735
upperback 0.016212 -3.57218 -1.75604
thorax -5.04301 -1.60423 2.37313
lowerneck -17.5712 -7.87831 -1.92985
upperneck 36.6 -13.2445 6.02538
head 16.8152 -4.71446 0.454736
rclavicle 6.12257e-014 1.66979e-014
rhumerus -35.6958 1.41405 -90.0206
rradius 36.1987
rwrist -6.47942
rhand -24.1787 -3.15568
rfingers 7.12502
rthumb 2.30473 -33.123
lclavicle 6.12257e-014 1.66979e-014
lhumerus -34.0318 -14.7576 91.2871
lradius 47.5423
lwrist 33.8554
lhand -26.2635 20.2584
lfingers 7.12502
lthumb 0.291261 50.2379
rfemur -25.8693 -4.01563 21.0724
rtibia 50.2692
rfoot -31.0303 -0.66309
rtoes -14.465
lfemur -6.07743 6.18303 -17.8855
ltibia 41.1434
lfoot -51.3751 11.4934
ltoes -14.7833
